<?xml version="1.0" encoding="UTF-8" standalone="no"?>
<svg
   xmlns:dc="http://purl.org/dc/elements/1.1/"
   xmlns:cc="http://creativecommons.org/ns#"
   xmlns:rdf="http://www.w3.org/1999/02/22-rdf-syntax-ns#"
   xmlns:svg="http://www.w3.org/2000/svg"
   xmlns="http://www.w3.org/2000/svg"
   xmlns:sodipodi="http://sodipodi.sourceforge.net/DTD/sodipodi-0.dtd"
   xmlns:inkscape="http://www.inkscape.org/namespaces/inkscape"
   width="201.88409mm"
   height="20.345533mm"
   viewBox="0 0 201.88409 20.34553"
   version="1.1"
   id="svg8"
   inkscape:version="1.0.1 (0767f8302a, 2020-10-17)"
   sodipodi:docname="logo.svg">
  <defs
     id="defs2">
    <rect
       x="1.4923274"
       y="133.11726"
       width="210.30744"
       height="34.397014"
       id="rect888" />
  </defs>
  <sodipodi:namedview
     id="base"
     pagecolor="#ffffff"
     bordercolor="#666666"
     borderopacity="1.0"
     inkscape:pageopacity="0.0"
     inkscape:pageshadow="2"
     inkscape:zoom="0.35"
     inkscape:cx="394.35971"
     inkscape:cy="59.366717"
     inkscape:document-units="mm"
     inkscape:current-layer="layer1"
     inkscape:document-rotation="0"
     showgrid="false"
     inkscape:pagecheckerboard="true"
     inkscape:window-width="1366"
     inkscape:window-height="708"
     inkscape:window-x="0"
     inkscape:window-y="28"
     inkscape:window-maximized="1"
     fit-margin-top="0"
     fit-margin-left="0"
     fit-margin-right="0"
     fit-margin-bottom="0" />
  <metadata
     id="metadata5">
    <rdf:RDF>
      <cc:Work
         rdf:about="">
        <dc:format>image/svg+xml</dc:format>
        <dc:type
           rdf:resource="http://purl.org/dc/dcmitype/StillImage" />
        <dc:title></dc:title>
      </cc:Work>
    </rdf:RDF>
  </metadata>
  <g
     inkscape:label="Layer 1"
     inkscape:groupmode="layer"
     id="layer1"
     transform="translate(-1.4923274,-132.45922)">
    <g
       aria-label="FreshFoodFruits"
       id="text12"
       style="font-style:normal;font-variant:normal;font-weight:bold;font-stretch:normal;font-size:27.5034px;line-height:1.25;font-family:'SF Pro Display';-inkscape-font-specification:'SF Pro Display, Bold';font-variant-ligatures:normal;font-variant-caps:normal;font-variant-numeric:normal;font-variant-east-asian:normal;fill:#000000;fill-opacity:1;stroke:none;stroke-width:0.64461">
      <path
         d="m 5.5480047,152.49588 v -7.6279 H 13.43106 v -3.20962 H 5.5480047 v -5.19718 h 8.6351013 v -3.34392 H 1.4923274 v 19.37862 z"
         style="font-style:normal;font-variant:normal;font-weight:bold;font-stretch:normal;font-size:27.5034px;font-family:'SF Pro Display';-inkscape-font-specification:'SF Pro Display, Bold';font-variant-ligatures:normal;font-variant-caps:normal;font-variant-numeric:normal;font-variant-east-asian:normal;fill:#008000;fill-opacity:1;stroke-width:0.64461"
         id="path855" />
      <path
         d="m 16.251232,152.49588 h 3.921384 v -8.04421 c 0,-2.02784 1.128069,-3.20962 3.061902,-3.20962 0.564034,0 1.10121,0.094 1.423516,0.2283 v -3.45136 c -0.268588,-0.0806 -0.658041,-0.14772 -1.11464,-0.14772 -1.692104,0 -2.914179,0.99377 -3.424496,2.82017 h -0.08058 v -2.59187 h -3.78709 z"
         style="font-style:normal;font-variant:normal;font-weight:bold;font-stretch:normal;font-size:27.5034px;font-family:'SF Pro Display';-inkscape-font-specification:'SF Pro Display, Bold';font-variant-ligatures:normal;font-variant-caps:normal;font-variant-numeric:normal;font-variant-east-asian:normal;fill:#008000;fill-opacity:1;stroke-width:0.64461"
         id="path857" />
      <path
         d="m 32.218783,140.69144 c 1.745821,0 2.941038,1.26237 3.021614,3.10219 h -6.110375 c 0.134294,-1.79954 1.369799,-3.10219 3.088761,-3.10219 z m 3.075332,7.3996 c -0.362594,1.10121 -1.463804,1.81297 -2.90075,1.81297 -2.00098,0 -3.303631,-1.41009 -3.303631,-3.46479 v -0.24173 h 9.924323 v -1.19521 c 0,-4.37798 -2.645591,-7.21159 -6.835562,-7.21159 -4.257118,0 -6.942997,2.98133 -6.942997,7.57418 0,4.60628 2.65902,7.43989 7.09072,7.43989 3.55879,0 6.137234,-1.89355 6.566974,-4.71372 z"
         style="font-style:normal;font-variant:normal;font-weight:bold;font-stretch:normal;font-size:27.5034px;font-family:'SF Pro Display';-inkscape-font-specification:'SF Pro Display, Bold';font-variant-ligatures:normal;font-variant-caps:normal;font-variant-numeric:normal;font-variant-east-asian:normal;fill:#008000;fill-opacity:1;stroke-width:0.64461"
         id="path859" />
      <path
         d="m 40.773308,142.32983 c 0,2.12184 1.396657,3.54536 4.122824,4.16311 l 2.65902,0.59089 c 1.289222,0.30888 1.77268,0.71176 1.77268,1.43695 0,0.94006 -0.899769,1.53095 -2.390432,1.53095 -1.55781,0 -2.511297,-0.69833 -2.699308,-1.90697 h -3.827378 c 0.21487,2.80674 2.578444,4.66 6.419251,4.66 3.800519,0 6.405821,-1.86669 6.405821,-4.70029 0,-2.14871 -1.168357,-3.2902 -4.055677,-3.93481 l -2.753026,-0.5909 c -1.262363,-0.29544 -1.880115,-0.7789 -1.880115,-1.49066 0,-0.92663 0.88634,-1.54438 2.242709,-1.54438 1.450374,0 2.377003,0.71176 2.457579,1.86668 h 3.612507 c -0.05372,-2.79331 -2.403862,-4.61971 -6.016369,-4.61971 -3.693083,0 -6.070086,1.79954 -6.070086,4.53914 z"
         style="font-style:normal;font-variant:normal;font-weight:bold;font-stretch:normal;font-size:27.5034px;font-family:'SF Pro Display';-inkscape-font-specification:'SF Pro Display, Bold';font-variant-ligatures:normal;font-variant-caps:normal;font-variant-numeric:normal;font-variant-east-asian:normal;fill:#008000;fill-opacity:1;stroke-width:0.64461"
         id="path861" />
      <path
         d="m 55.290485,152.49588 h 3.921383 v -8.21879 c 0,-1.89354 1.087781,-3.1962 2.941038,-3.1962 1.786109,0 2.699308,1.12807 2.699308,2.98133 v 8.43366 h 3.921383 v -9.26628 c 0,-3.33049 -1.826397,-5.39862 -5.022593,-5.39862 -2.188992,0 -3.760231,1.02063 -4.525706,2.8336 h -0.08058 v -7.54732 h -3.854236 z"
         style="font-style:normal;font-variant:normal;font-weight:bold;font-stretch:normal;font-size:27.5034px;font-family:'SF Pro Display';-inkscape-font-specification:'SF Pro Display, Bold';font-variant-ligatures:normal;font-variant-caps:normal;font-variant-numeric:normal;font-variant-east-asian:normal;fill:#008000;fill-opacity:1;stroke-width:0.64461"
         id="path863" />
      <path
         d="m 75.649445,152.49588 v -7.6279 H 83.5325 v -3.20962 h -7.883055 v -5.19718 h 8.635101 v -3.34392 H 71.593768 v 19.37862 z"
         style="font-style:normal;font-variant:normal;font-weight:bold;font-stretch:normal;font-size:27.5034px;font-family:'SF Pro Display';-inkscape-font-specification:'SF Pro Display, Bold';font-variant-ligatures:normal;font-variant-caps:normal;font-variant-numeric:normal;font-variant-east-asian:normal;fill:#008000;fill-opacity:1;stroke-width:0.64461"
         id="path865" />
      <path
         d="m 92.583916,152.80476 c 4.351124,0 7.131008,-2.77989 7.131008,-7.52046 0,-4.67343 -2.820173,-7.49361 -7.131008,-7.49361 -4.310836,0 -7.131009,2.83361 -7.131009,7.49361 0,4.72714 2.779885,7.52046 7.131009,7.52046 z m 0,-2.99476 c -1.933833,0 -3.155908,-1.62496 -3.155908,-4.51228 0,-2.86046 1.248934,-4.51227 3.155908,-4.51227 1.906974,0 3.142478,1.65181 3.142478,4.51227 0,2.88732 -1.222075,4.51228 -3.142478,4.51228 z"
         style="font-style:normal;font-variant:normal;font-weight:bold;font-stretch:normal;font-size:27.5034px;font-family:'SF Pro Display';-inkscape-font-specification:'SF Pro Display, Bold';font-variant-ligatures:normal;font-variant-caps:normal;font-variant-numeric:normal;font-variant-east-asian:normal;fill:#008000;fill-opacity:1;stroke-width:0.64461"
         id="path867" />
      <path
         d="m 108.32317,152.80476 c 4.35112,0 7.131,-2.77989 7.131,-7.52046 0,-4.67343 -2.82017,-7.49361 -7.131,-7.49361 -4.31084,0 -7.13101,2.83361 -7.13101,7.49361 0,4.72714 2.77988,7.52046 7.13101,7.52046 z m 0,-2.99476 c -1.93384,0 -3.15591,-1.62496 -3.15591,-4.51228 0,-2.86046 1.24893,-4.51227 3.15591,-4.51227 1.90697,0 3.14247,1.65181 3.14247,4.51227 0,2.88732 -1.22207,4.51228 -3.14247,4.51228 z"
         style="font-style:normal;font-variant:normal;font-weight:bold;font-stretch:normal;font-size:27.5034px;font-family:'SF Pro Display';-inkscape-font-specification:'SF Pro Display, Bold';font-variant-ligatures:normal;font-variant-caps:normal;font-variant-numeric:normal;font-variant-east-asian:normal;fill:#008000;fill-opacity:1;stroke-width:0.64461"
         id="path869" />
      <path
         d="m 122.80005,152.72418 c 2.12185,0 3.78709,-1.11464 4.48542,-2.69931 h 0.0671 v 2.47101 h 3.86766 v -19.37862 h -3.92138 v 7.45332 h -0.0806 c -0.69832,-1.5981 -2.30985,-2.69931 -4.39141,-2.69931 -3.61251,0 -5.8955,2.8336 -5.8955,7.3996 0,4.60628 2.26957,7.45331 5.86864,7.45331 z m 1.32951,-11.71043 c 1.94727,0 3.1962,1.66524 3.1962,4.28397 0,2.63217 -1.24893,4.27055 -3.1962,4.27055 -1.97412,0 -3.18276,-1.62495 -3.18276,-4.27055 0,-2.63216 1.20864,-4.28397 3.18276,-4.28397 z"
         style="font-style:normal;font-variant:normal;font-weight:bold;font-stretch:normal;font-size:27.5034px;font-family:'SF Pro Display';-inkscape-font-specification:'SF Pro Display, Bold';font-variant-ligatures:normal;font-variant-caps:normal;font-variant-numeric:normal;font-variant-east-asian:normal;fill:#008000;fill-opacity:1;stroke-width:0.64461"
         id="path871" />
      <path
         d="m 138.23042,152.49588 v -7.6279 h 7.88306 v -3.20962 h -7.88306 v -5.19718 h 8.6351 v -3.34392 h -12.69077 v 19.37862 z"
         style="font-style:normal;font-variant:normal;font-weight:bold;font-stretch:normal;font-size:27.5034px;font-family:'SF Pro Display';-inkscape-font-specification:'SF Pro Display, Bold';font-variant-ligatures:normal;font-variant-caps:normal;font-variant-numeric:normal;font-variant-east-asian:normal;fill:#008000;fill-opacity:1;stroke-width:0.64461"
         id="path873" />
      <path
         d="m 148.93366,152.49588 h 3.92138 v -8.04421 c 0,-2.02784 1.12807,-3.20962 3.06191,-3.20962 0.56403,0 1.10121,0.094 1.42351,0.2283 v -3.45136 c -0.26859,-0.0806 -0.65804,-0.14772 -1.11464,-0.14772 -1.6921,0 -2.91418,0.99377 -3.42449,2.82017 h -0.0806 v -2.59187 h -3.78709 z"
         style="font-style:normal;font-variant:normal;font-weight:bold;font-stretch:normal;font-size:27.5034px;font-family:'SF Pro Display';-inkscape-font-specification:'SF Pro Display, Bold';font-variant-ligatures:normal;font-variant-caps:normal;font-variant-numeric:normal;font-variant-east-asian:normal;fill:#008000;fill-opacity:1;stroke-width:0.64461"
         id="path875" />
      <path
         d="m 172.22022,138.09957 h -3.92139 v 8.24565 c 0,1.90697 -1.08778,3.15591 -2.8336,3.15591 -1.73239,0 -2.68588,-1.02064 -2.68588,-2.94104 v -8.46052 h -3.92138 v 9.27971 c 0,3.35735 2.06813,5.38519 5.18375,5.38519 2.17556,0 3.59907,-1.04749 4.31083,-2.86046 h 0.0806 v 2.59187 h 3.78709 z"
         style="font-style:normal;font-variant:normal;font-weight:bold;font-stretch:normal;font-size:27.5034px;font-family:'SF Pro Display';-inkscape-font-specification:'SF Pro Display, Bold';font-variant-ligatures:normal;font-variant-caps:normal;font-variant-numeric:normal;font-variant-east-asian:normal;fill:#008000;fill-opacity:1;stroke-width:0.64461"
         id="path877" />
      <path
         d="m 174.83896,152.49588 h 3.92138 v -14.39631 h -3.92138 z m 1.96069,-15.98098 c 1.18179,0 2.09499,-0.89977 2.09499,-2.02784 0,-1.1415 -0.9132,-2.02784 -2.09499,-2.02784 -1.18179,0 -2.09499,0.88634 -2.09499,2.02784 0,1.12807 0.9132,2.02784 2.09499,2.02784 z"
         style="font-style:normal;font-variant:normal;font-weight:bold;font-stretch:normal;font-size:27.5034px;font-family:'SF Pro Display';-inkscape-font-specification:'SF Pro Display, Bold';font-variant-ligatures:normal;font-variant-caps:normal;font-variant-numeric:normal;font-variant-east-asian:normal;fill:#008000;fill-opacity:1;stroke-width:0.64461"
         id="path879" />
      <path
         d="m 182.42656,134.78251 v 3.31706 h -2.02784 v 2.95447 h 2.02784 v 7.56074 c 0,2.80675 1.31608,3.93482 4.70029,3.93482 0.79233,0 1.4638,-0.0671 1.86668,-0.16116 v -2.88731 c -0.24173,0.0403 -0.60432,0.0671 -0.95348,0.0671 -1.15493,0 -1.69211,-0.52374 -1.69211,-1.62495 v -6.88928 h 2.65902 v -2.95447 h -2.65902 v -3.31706 z"
         style="font-style:normal;font-variant:normal;font-weight:bold;font-stretch:normal;font-size:27.5034px;font-family:'SF Pro Display';-inkscape-font-specification:'SF Pro Display, Bold';font-variant-ligatures:normal;font-variant-caps:normal;font-variant-numeric:normal;font-variant-east-asian:normal;fill:#008000;fill-opacity:1;stroke-width:0.64461"
         id="path881" />
      <path
         d="m 190.91395,142.32983 c 0,2.12184 1.39666,3.54536 4.12282,4.16311 l 2.65902,0.59089 c 1.28922,0.30888 1.77268,0.71176 1.77268,1.43695 0,0.94006 -0.89977,1.53095 -2.39043,1.53095 -1.55781,0 -2.5113,-0.69833 -2.69931,-1.90697 h -3.82738 c 0.21487,2.80674 2.57845,4.66 6.41926,4.66 3.80051,0 6.40582,-1.86669 6.40582,-4.70029 0,-2.14871 -1.16836,-3.2902 -4.05568,-3.93481 l -2.75303,-0.5909 c -1.26236,-0.29544 -1.88011,-0.7789 -1.88011,-1.49066 0,-0.92663 0.88634,-1.54438 2.24271,-1.54438 1.45037,0 2.377,0.71176 2.45758,1.86668 h 3.6125 c -0.0537,-2.79331 -2.40386,-4.61971 -6.01637,-4.61971 -3.69308,0 -6.07008,1.79954 -6.07008,4.53914 z"
         style="font-style:normal;font-variant:normal;font-weight:bold;font-stretch:normal;font-size:27.5034px;font-family:'SF Pro Display';-inkscape-font-specification:'SF Pro Display, Bold';font-variant-ligatures:normal;font-variant-caps:normal;font-variant-numeric:normal;font-variant-east-asian:normal;fill:#008000;fill-opacity:1;stroke-width:0.64461"
         id="path883" />
    </g>
    <text
       xml:space="preserve"
       id="text886"
       style="fill:black;fill-opacity:1;line-height:1.25;stroke:none;font-family:sans-serif;font-style:normal;font-weight:normal;font-size:10.58333333px;white-space:pre;shape-inside:url(#rect888);" />
  </g>
</svg>
